<svg width="34" height="34" viewBox="0 0 34 34" fill="none" xmlns="http://www.w3.org/2000/svg">
<path d="M4.64842 2.08096e-05L1.69215 0.0133021C0.754427 0.0184021 -0.00338617 0.784863 1.13798e-05 1.72326C0.00510771 2.66166 0.771017 3.4184 1.70874 3.4133L3.52696 3.40666L9.1243 16.844L7.09041 20.1012C6.4109 21.1892 6.37576 22.5635 6.99751 23.6838C7.61926 24.8041 8.79898 25.5 10.0799 25.5H28.8659C29.8037 25.5 30.5647 24.7384 30.5647 23.8C30.5647 22.8616 29.8037 22.1 28.8659 22.1H10.0799L9.97037 21.9008L11.9678 18.7H24.6555C25.8888 18.7 27.0254 18.0313 27.6217 16.9535L33.7864 5.85041C34 5.27586 34 4.68966 33.4138 4.10345C32.8276 3.51724 32.1122 3.53428 31.4907 3.53109C31.2163 3.68014 30.9796 3.90668 30.8169 4.20021L29.5696 6.44721L24.6555 15.3H12.1602L8.47573 6.44721L7.21027 3.40666L6.22775 1.04592C5.96274 0.410119 5.33642 -0.00337919 4.64842 2.08096e-05ZM10.1794 27.2C9.27831 27.2 8.41413 27.5582 7.77696 28.1958C7.1398 28.8335 6.78184 29.6983 6.78184 30.6C6.78184 31.5017 7.1398 32.3665 7.77696 33.0042C8.41413 33.6418 9.27831 34 10.1794 34C11.0805 34 11.9447 33.6418 12.5818 33.0042C13.219 32.3665 13.5769 31.5017 13.5769 30.6C13.5769 29.6983 13.219 28.8335 12.5818 28.1958C11.9447 27.5582 11.0805 27.2 10.1794 27.2ZM27.1672 27.2C26.2661 27.2 25.4019 27.5582 24.7647 28.1958C24.1276 28.8335 23.7696 29.6983 23.7696 30.6C23.7696 31.5017 24.1276 32.3665 24.7647 33.0042C25.4019 33.6418 26.2661 34 27.1672 34C28.0682 34 28.9324 33.6418 29.5696 33.0042C30.2068 32.3665 30.5647 31.5017 30.5647 30.6C30.5647 29.6983 30.2068 28.8335 29.5696 28.1958C28.9324 27.5582 28.0682 27.2 27.1672 27.2Z" fill="white"/>
<path d="M30.8169 4.20021C30.9796 3.90668 31.2163 3.68014 31.4907 3.53109L7.21027 3.40666L8.47573 6.44721H29.5696L30.8169 4.20021Z" fill="white"/>
</svg>
