<svg width="23" height="16" viewBox="0 0 23 16" fill="none" xmlns="http://www.w3.org/2000/svg">
<path d="M21.3271 0.000463718C21.0499 0.00872057 20.7869 0.124533 20.5938 0.323367L7.4818 13.4353L1.83621 7.78972C1.73792 7.68735 1.6202 7.60562 1.48994 7.54932C1.35967 7.49302 1.21948 7.46328 1.07758 7.46183C0.935676 7.46039 0.794911 7.48728 0.663527 7.54092C0.532144 7.59455 0.412784 7.67387 0.312438 7.77422C0.212091 7.87456 0.132776 7.99392 0.0791363 8.12531C0.0254968 8.25669 -0.00138841 8.39746 5.52002e-05 8.53936C0.00149881 8.68126 0.0312422 8.82145 0.0875435 8.95172C0.143845 9.08198 0.225572 9.1997 0.327939 9.29799L6.72767 15.6977C6.92771 15.8977 7.19897 16.01 7.4818 16.01C7.76464 16.01 8.0359 15.8977 8.23594 15.6977L22.102 1.83164C22.2562 1.68182 22.3614 1.48893 22.404 1.27825C22.4467 1.06757 22.4246 0.848929 22.3409 0.650979C22.2571 0.45303 22.1155 0.285006 21.9346 0.168926C21.7537 0.052847 21.5419 -0.00587235 21.3271 0.000463718Z" fill="white"/>
</svg>
