<svg width="71" height="79" viewBox="0 0 71 79" fill="none" xmlns="http://www.w3.org/2000/svg">
<path fill-rule="evenodd" clip-rule="evenodd" d="M1.20288 20.4957L33.7493 0.382725C34.2446 0.0766246 34.782 -0.0352847 35.2943 0.0094893C35.8067 -0.0352847 36.3441 0.0766246 36.8394 0.382725L69.3858 20.4957C70.1335 20.9577 70.5887 21.7741 70.5887 22.653V58.1893C70.5887 59.1217 70.0771 59.9788 69.2564 60.4214L36.71 77.9745C36.2487 78.2234 35.7604 78.313 35.2944 78.2728C34.8283 78.313 34.34 78.2234 33.8786 77.9745L1.33223 60.4214C0.5116 59.9788 0 59.1217 0 58.1893V22.653C0 21.7741 0.455147 20.9577 1.20288 20.4957ZM8.86388 25.1277L26.8436 14.5985C28.5342 13.6085 30.6612 14.8277 30.6612 16.787V62.4958C30.6612 64.4133 28.6152 65.6372 26.9257 64.7303L8.94596 55.0786C8.12291 54.6368 7.60938 53.7782 7.60938 52.8441V27.3161C7.60938 26.4156 8.08685 25.5827 8.86388 25.1277ZM61.5367 25.1277L43.557 14.5985C41.8663 13.6085 39.7394 14.8277 39.7394 16.787V62.4958C39.7394 64.4133 41.7854 65.6372 43.4749 64.7303L61.4546 55.0786C62.2777 54.6368 62.7912 53.7782 62.7912 52.8441V27.3161C62.7912 26.4156 62.3137 25.5827 61.5367 25.1277Z" fill="#F9F9F9"/>
</svg>
