<svg width="86" height="86" viewBox="0 0 86 86" fill="none" xmlns="http://www.w3.org/2000/svg">
<path d="M42.9935 82.4164C25.7935 82.4164 12.5352 69.5164 12.5352 52.6748C12.5352 46.5831 13.6102 41.9248 15.7602 38.3414C17.9102 35.1164 18.9852 33.6831 20.7768 31.8914C21.4935 31.5331 21.8518 30.8164 22.5685 30.0998L23.6435 28.6664C25.4352 26.8748 25.7935 26.5164 27.5852 23.2914C29.3768 20.0664 30.8102 12.5414 30.8102 7.16643C30.8102 5.73309 31.5268 4.65809 32.9602 3.94143C34.0352 3.22476 35.4685 3.58309 36.5435 4.29976L38.3352 5.73309C42.2768 8.59976 47.2935 12.8998 51.2352 18.9914C53.7435 22.9331 56.2518 28.3081 57.6852 32.6081C58.4018 31.1748 59.1185 29.3831 59.4768 27.2331C59.8352 25.7998 60.9102 24.3664 62.3435 24.0081C63.7768 23.6498 65.5685 24.3664 66.2852 25.7998C68.7935 30.0998 69.1518 30.8164 71.3018 37.2664C73.4518 44.0748 73.8102 48.3748 73.8102 52.3164C73.4518 68.7998 59.8352 82.4164 42.9935 82.4164ZM37.2602 14.3331C36.5435 18.9914 35.4685 23.6498 33.6768 26.8748C31.5268 30.4581 30.8102 31.5331 29.0185 33.6831L27.9435 34.7581C27.2268 35.4748 26.5102 36.1914 26.1518 36.9081C24.7185 38.6998 23.6435 39.7748 21.8518 42.2831C20.4185 44.7914 19.7018 48.3748 19.7018 53.0331C19.7018 65.5748 30.0935 75.6081 42.9935 75.6081C55.8935 75.6081 66.2852 65.2164 66.2852 52.3164C66.2852 48.7331 66.2852 45.5081 64.1352 39.7748C63.7768 38.6998 63.4185 37.9831 63.4185 37.2664C61.6268 40.1331 59.4768 41.9248 58.4018 42.6414C57.3268 43.3581 55.8935 43.7164 54.4602 42.9998C53.3852 42.2831 52.3102 41.2081 52.3102 39.7748C52.3102 38.6998 49.4435 29.0248 45.5018 22.9331C42.9935 19.3498 40.1268 16.4831 37.2602 14.3331Z" fill="url(#paint0_linear_291_723)"/>
<defs>
<linearGradient id="paint0_linear_291_723" x1="24.4334" y1="10.1619" x2="64.326" y2="71.8065" gradientUnits="userSpaceOnUse">
<stop stop-color="#6D27DA"/>
<stop offset="1" stop-color="#EA2D45"/>
</linearGradient>
</defs>
</svg>
