<svg width="34" height="34" viewBox="0 0 34 34" fill="none" xmlns="http://www.w3.org/2000/svg">
<g clip-path="url(#clip0_291_678)">
<path d="M21.4712 2.05859H12.5862C12.2302 2.05859 11.9013 2.24825 11.7233 2.55664C11.5454 2.86503 11.5453 3.24434 11.7233 3.55273L21.2222 19.9883H32.4267L22.3331 2.55564C22.1551 2.24825 21.8263 2.05859 21.4712 2.05859Z" fill="white"/>
<path d="M10.2288 5.04297L0.134337 22.4771C-0.0397804 22.7767 -0.0446281 23.1444 0.119727 23.4498L4.42318 31.4186C4.59438 31.7357 4.92415 31.9361 5.28507 31.9409H5.29968C5.65475 31.9409 5.98453 31.7513 6.1625 31.4429L15.8242 14.7247L10.2288 5.04297Z" fill="white"/>
<path d="M33.8609 22.4659C33.6819 22.1653 33.357 21.9805 33.0059 21.9805H13.9864L8.23047 31.9414H28.7025C29.0682 31.9414 29.4048 31.741 29.5789 31.4191L33.8823 23.4503C34.0486 23.141 34.0409 22.7674 33.8609 22.4659Z" fill="white"/>
</g>
<rect x="0.5" y="0.5" width="33" height="33" stroke="black"/>
<defs>
<clipPath id="clip0_291_678">
<rect width="34" height="34" fill="white"/>
</clipPath>
</defs>
</svg>
