<svg width="86" height="86" viewBox="0 0 86 86" fill="none" xmlns="http://www.w3.org/2000/svg">
<path d="M62.8203 6.58984C55.6665 6.58984 49.3952 9.77974 44.6846 15.8149C44.0564 16.6198 43.4963 17.425 43 18.2049C42.5037 17.4248 41.9436 16.6198 41.3154 15.8149C36.6048 9.77974 30.3335 6.58984 23.1797 6.58984C9.66559 6.58984 0 17.9054 0 31.4835C0 47.0093 12.7248 61.6418 41.2593 78.9279C41.7943 79.2519 42.3972 79.414 43 79.414C43.6028 79.414 44.2057 79.2521 44.7407 78.9281C73.2752 61.6419 86 47.0095 86 31.4836C86 17.9126 76.3423 6.58984 62.8203 6.58984ZM70.4053 50.8158C64.4647 57.4442 55.4876 64.4237 43 72.1181C30.5124 64.4237 21.5353 57.4442 15.5947 50.816C9.62209 44.1517 6.71875 37.828 6.71875 31.4836C6.71875 21.7072 13.3256 13.3086 23.1797 13.3086C28.1979 13.3086 32.4768 15.4905 35.8974 19.7939C38.6326 23.2354 39.7851 26.7891 39.7931 26.8145C40.2307 28.2178 41.5301 29.1737 43.0002 29.1737C44.4702 29.1737 45.7696 28.218 46.2072 26.8145C46.2178 26.7805 47.3356 23.3377 49.9809 19.9487C53.4201 15.5426 57.7399 13.3084 62.8203 13.3084C72.6848 13.3084 79.2812 21.7151 79.2812 31.4835C79.2812 37.8278 76.3779 44.1515 70.4053 50.8158Z" fill="url(#paint0_linear_291_743)"/>
<defs>
<linearGradient id="paint0_linear_291_743" x1="12.2617" y1="10.2481" x2="60.4687" y2="68.4493" gradientUnits="userSpaceOnUse">
<stop stop-color="#6D27DA"/>
<stop offset="1" stop-color="#EA2D45"/>
</linearGradient>
</defs>
</svg>
