<svg width="34" height="34" viewBox="0 0 34 34" fill="none" xmlns="http://www.w3.org/2000/svg">
<path d="M3.51274 11.5898C2.93182 11.5898 2.46094 12.0607 2.46094 12.6416V30.8222C2.46094 31.4031 2.93181 31.874 3.51274 31.874H7.7198C8.3006 31.874 8.77154 31.4031 8.77154 30.8222V12.6416C8.77154 12.0607 8.3006 11.5898 7.7198 11.5898H3.51274Z" fill="white"/>
<path d="M5.61673 2.125C3.71851 2.125 2.17969 3.66382 2.17969 5.56197C2.17969 7.46019 3.71851 8.99901 5.61673 8.99901C7.51488 8.99901 9.0537 7.46019 9.0537 5.56197C9.05371 3.66382 7.51488 2.125 5.61673 2.125Z" fill="white"/>
<path d="M17.7487 11.5895H13.5791C12.9982 11.5895 12.5273 12.0604 12.5273 12.6413V30.3148C12.5273 30.8956 12.9982 31.3666 13.5791 31.3666H17.7862C18.3671 31.3666 18.8379 30.8956 18.8379 30.3148V19.9097C18.8379 18.0219 20.3684 16.4915 22.2562 16.4915C24.1441 16.4915 25.6745 18.0219 25.6745 19.9097V30.3148C25.6745 30.8956 26.1454 31.3666 26.7262 31.3666H30.7643C31.3451 31.3666 31.816 30.8956 31.816 30.3148V18.257C31.816 14.4087 28.6964 11.2891 24.8481 11.2891H23.8589C22.2218 11.2891 20.6664 12.0044 19.6009 13.2475L18.8004 14.1814V12.6413C18.8004 12.0604 18.3295 11.5895 17.7487 11.5895Z" fill="white"/>
</svg>
