<svg width="37" height="37" viewBox="0 0 37 37" fill="none" xmlns="http://www.w3.org/2000/svg">
<path d="M22.4643 0C20.2786 0 18.5 1.77864 18.5 3.96429V4.84524H21.1429V3.96429C21.1429 3.23574 21.7357 2.64286 22.4643 2.64286H33.0357C33.7643 2.64286 34.3571 3.23574 34.3571 3.96429V19.8214C34.3571 20.55 33.7643 21.1429 33.0357 21.1429H29.5119V23.7857H33.0357C35.2214 23.7857 37 22.0071 37 19.8214V3.96429C37 1.77864 35.2214 0 33.0357 0H22.4643ZM3.96429 13.2143C1.79053 13.2143 0 15.0048 0 17.1786V33.0357C0 35.2095 1.79053 37 3.96429 37H14.5357C16.7095 37 18.5 35.2095 18.5 33.0357V17.1786C18.5 15.0048 16.7095 13.2143 14.5357 13.2143H3.96429ZM3.96429 15.8571H14.5357C15.2814 15.8571 15.8571 16.4328 15.8571 17.1786V33.0357C15.8571 33.7814 15.2814 34.3571 14.5357 34.3571H3.96429C3.21856 34.3571 2.64286 33.7814 2.64286 33.0357V17.1786C2.64286 16.4328 3.21856 15.8571 3.96429 15.8571ZM5.72619 18.5C5.55109 18.4975 5.37723 18.5299 5.21474 18.5952C5.05225 18.6605 4.90435 18.7574 4.77965 18.8804C4.65495 19.0033 4.55592 19.1498 4.48833 19.3114C4.42075 19.4729 4.38594 19.6463 4.38594 19.8214C4.38594 19.9965 4.42075 20.1699 4.48833 20.3315C4.55592 20.493 4.65495 20.6395 4.77965 20.7625C4.90435 20.8854 5.05225 20.9824 5.21474 21.0477C5.37723 21.113 5.55109 21.1453 5.72619 21.1429H12.7738C12.9489 21.1453 13.1228 21.113 13.2853 21.0477C13.4478 20.9824 13.5956 20.8854 13.7204 20.7625C13.8451 20.6395 13.9441 20.493 14.0117 20.3315C14.0793 20.1699 14.1141 19.9965 14.1141 19.8214C14.1141 19.6463 14.0793 19.4729 14.0117 19.3114C13.9441 19.1498 13.8451 19.0033 13.7204 18.8804C13.5956 18.7574 13.4478 18.6605 13.2853 18.5952C13.1228 18.5299 12.9489 18.4975 12.7738 18.5H5.72619ZM5.72619 23.7857C5.55109 23.7832 5.37723 23.8156 5.21474 23.8809C5.05225 23.9462 4.90435 24.0431 4.77965 24.1661C4.65495 24.289 4.55592 24.4355 4.48833 24.5971C4.42075 24.7586 4.38594 24.932 4.38594 25.1071C4.38594 25.2823 4.42075 25.4556 4.48833 25.6172C4.55592 25.7787 4.65495 25.9253 4.77965 26.0482C4.90435 26.1712 5.05225 26.2681 5.21474 26.3334C5.37723 26.3987 5.55109 26.431 5.72619 26.4286H12.7738C12.9489 26.431 13.1228 26.3987 13.2853 26.3334C13.4478 26.2681 13.5956 26.1712 13.7204 26.0482C13.8451 25.9253 13.9441 25.7787 14.0117 25.6172C14.0793 25.4556 14.1141 25.2823 14.1141 25.1071C14.1141 24.932 14.0793 24.7586 14.0117 24.5971C13.9441 24.4355 13.8451 24.289 13.7204 24.1661C13.5956 24.0431 13.4478 23.9462 13.2853 23.8809C13.1228 23.8156 12.9489 23.7832 12.7738 23.7857H5.72619Z" fill="white"/>
<path d="M5.10968 29.1667C5.27217 29.1014 5.44602 29.0691 5.62113 29.0716H12.6687C12.8439 29.0691 13.0177 29.1014 13.1802 29.1667C13.3427 29.232 13.4906 29.329 13.6153 29.4519C13.74 29.5749 13.839 29.7214 13.9066 29.8829C13.9742 30.0445 14.009 30.2179 14.009 30.393C14.009 30.5681 13.9742 30.7415 13.9066 30.903C13.839 31.0646 13.74 31.2111 13.6153 31.3341C13.4906 31.457 13.3427 31.5539 13.1802 31.6192C13.0177 31.6845 12.8439 31.7169 12.6687 31.7144H5.62113C5.44602 31.7169 5.27217 31.6845 5.10968 31.6192C4.94718 31.5539 4.79929 31.457 4.67458 31.3341C4.54988 31.2111 4.45086 31.0646 4.38327 30.903C4.31568 30.7415 4.28088 30.5681 4.28088 30.393C4.28088 30.2179 4.31568 30.0445 4.38327 29.8829C4.45086 29.7214 4.54988 29.5749 4.67458 29.4519C4.79929 29.329 4.94718 29.232 5.10968 29.1667Z" fill="white"/>
<path d="M9.25 10.5716C9.25 8.38592 11.0286 6.60727 13.2143 6.60727H23.7857C25.9714 6.60727 27.75 8.38592 27.75 10.5716V26.4287C27.75 28.6143 25.9714 30.393 23.7857 30.393H20.2619V27.7501H23.7857C24.5143 27.7501 25.1071 27.1572 25.1071 26.4287V10.5716C25.1071 9.84301 24.5143 9.25013 23.7857 9.25013H13.2143C12.4857 9.25013 11.8929 9.84301 11.8929 10.5716V11.4525H9.25V10.5716Z" fill="white"/>
</svg>
