<svg width="86" height="86" viewBox="0 0 86 86" fill="none" xmlns="http://www.w3.org/2000/svg">
<path fill-rule="evenodd" clip-rule="evenodd" d="M25.9798 7.16797C25.9798 13.5965 20.7624 18.8138 14.3339 18.8138C12.8504 18.8138 11.6464 20.0178 11.6464 21.5013C11.6464 22.9848 12.8504 24.1888 14.3339 24.1888C20.7624 24.1888 25.9798 29.4061 25.9798 35.8346C25.9798 37.3181 27.1838 38.5221 28.6673 38.5221C30.1508 38.5221 31.3548 37.3181 31.3548 35.8346C31.3548 29.4061 36.5721 24.1888 43.0006 24.1888C44.4841 24.1888 45.6881 22.9848 45.6881 21.5013C45.6881 20.0178 44.4841 18.8138 43.0006 18.8138C36.5721 18.8138 31.3548 13.5965 31.3548 7.16797C31.3548 5.68447 30.1508 4.48047 28.6673 4.48047C27.1838 4.48047 25.9798 5.68447 25.9798 7.16797ZM28.6673 26.6541C27.3414 24.5901 25.5784 22.8271 23.5144 21.5013C25.5784 20.1755 27.3414 18.4125 28.6673 16.3485C29.9931 18.4125 31.7561 20.1755 33.8201 21.5013C31.7561 22.8271 29.9931 24.5901 28.6673 26.6541ZM35.8318 43.8973C46.2163 43.8973 54.6443 35.4693 54.6443 25.0848C54.6443 23.6013 55.8483 22.3973 57.3318 22.3973C58.8153 22.3973 60.0193 23.6013 60.0193 25.0848C60.0193 35.4693 68.4473 43.8973 78.8318 43.8973C80.3153 43.8973 81.5193 45.1013 81.5193 46.5848C81.5193 48.0683 80.3153 49.2723 78.8318 49.2723C68.4473 49.2723 60.0193 57.7003 60.0193 68.0848C60.0193 69.5683 58.8153 70.7723 57.3318 70.7723C55.8483 70.7723 54.6443 69.5683 54.6443 68.0848C54.6443 57.7003 46.2163 49.2723 35.8318 49.2723C34.3483 49.2723 33.1443 48.0683 33.1443 46.5848C33.1443 45.1013 34.3483 43.8973 35.8318 43.8973ZM46.9186 46.5848C51.3763 48.8888 55.0277 52.5403 57.3318 56.9979C59.6395 52.5403 63.2873 48.8888 67.745 46.5848C63.2873 44.2771 59.6359 40.6293 57.3318 36.1716C55.0241 40.6293 51.3763 44.2807 46.9186 46.5848ZM7.16797 61.8133C13.5965 61.8133 18.8138 56.596 18.8138 50.1675C18.8138 48.684 20.0178 47.48 21.5013 47.48C22.9848 47.48 24.1888 48.684 24.1888 50.1675C24.1888 56.596 29.4061 61.8133 35.8346 61.8133C37.3181 61.8133 38.5221 63.0173 38.5221 64.5008C38.5221 65.9843 37.3181 67.1883 35.8346 67.1883C29.4061 67.1883 24.1888 72.4057 24.1888 78.8342C24.1888 80.3177 22.9848 81.5217 21.5013 81.5217C20.0178 81.5217 18.8138 80.3177 18.8138 78.8342C18.8138 72.4057 13.5965 67.1883 7.16797 67.1883C5.68447 67.1883 4.48047 65.9843 4.48047 64.5008C4.48047 63.0173 5.68447 61.8133 7.16797 61.8133ZM16.3485 64.5008C18.4125 65.8267 20.1755 67.5897 21.5013 69.6537C22.8271 67.5897 24.5901 65.8267 26.6541 64.5008C24.5901 63.175 22.8271 61.412 21.5013 59.348C20.1755 61.412 18.4125 63.175 16.3485 64.5008Z" fill="url(#paint0_linear_291_732)"/>
<defs>
<linearGradient id="paint0_linear_291_732" x1="18.9469" y1="7.03311" x2="58.6105" y2="77.6587" gradientUnits="userSpaceOnUse">
<stop stop-color="#6D27DA"/>
<stop offset="1" stop-color="#EA2D45"/>
</linearGradient>
</defs>
</svg>
