<svg width="22" height="37" viewBox="0 0 22 37" fill="none" xmlns="http://www.w3.org/2000/svg">
<path d="M16.2247 0.000180413C16.081 0.00304201 15.9401 0.0364712 15.8138 0.0976841C15.6874 0.158897 15.5794 0.246122 15.4985 0.352096L0.156233 20.4616C0.0640032 20.5825 0.0104703 20.7234 0.00138585 20.8694C-0.00769856 21.0154 0.0280093 21.1608 0.104672 21.29C0.181336 21.4192 0.296056 21.5274 0.436508 21.6029C0.576959 21.6784 0.737833 21.7183 0.901842 21.7184H8.81446L5.43367 36.0323C5.39089 36.2162 5.4217 36.4077 5.52074 36.5736C5.61979 36.7394 5.78082 36.8691 5.97592 36.9402C6.17103 37.0113 6.38789 37.0193 6.58891 36.9628C6.78992 36.9063 6.96242 36.7888 7.07647 36.6309L21.5163 16.5214C21.6035 16.3998 21.6525 16.2596 21.658 16.1154C21.6636 15.9713 21.6255 15.8284 21.5478 15.7018C21.4702 15.5752 21.3557 15.4696 21.2165 15.396C21.0773 15.3224 20.9184 15.2835 20.7566 15.2834H13.7464L17.1272 0.96952C17.1551 0.851009 17.1526 0.728419 17.1199 0.610889C17.0872 0.49336 17.0252 0.383924 16.9384 0.290741C16.8517 0.197559 16.7424 0.123034 16.6189 0.0727239C16.4953 0.0224137 16.3606 -0.00238375 16.2247 0.000180413ZM13.9878 5.86585L11.457 16.4742C11.4295 16.5913 11.4316 16.7124 11.4632 16.8286C11.4948 16.9449 11.5551 17.0534 11.6397 17.1462C11.7243 17.2391 11.8311 17.3139 11.9522 17.3654C12.0734 17.4168 12.2059 17.4435 12.3401 17.4436L18.0488 17.3654L9.02439 29.7805L11.4632 20.5256C11.4907 20.4086 11.4886 20.2875 11.457 20.1713C11.4254 20.055 11.3651 19.9465 11.2805 19.8537C11.1959 19.7608 11.0891 19.6859 10.968 19.6345C10.8468 19.583 10.7143 19.5563 10.5801 19.5563H3.60976L13.9878 5.86585Z" fill="white"/>
</svg>
